<svg width="200" height="200" viewBox="0 0 200 200" fill="none" xmlns="http://www.w3.org/2000/svg">
<circle cx="100" cy="100" r="99.5" stroke="white"/>
<circle cx="99.5" cy="99.5" r="72" stroke="white"/>
<path d="M150 98.7042C150 92.0792 141.704 85.8 128.983 81.9083C131.921 68.9458 130.617 58.6292 124.867 55.325C123.473 54.5447 121.897 54.1519 120.3 54.1875V58.7292C121.237 58.7292 121.992 58.9167 122.625 59.2625C125.396 60.8542 126.6 66.9042 125.662 74.6917C125.438 76.6083 125.071 78.625 124.621 80.6833C120.361 79.6568 116.038 78.9149 111.679 78.4625C109.083 74.8804 106.25 71.4756 103.2 68.2708C109.846 62.0958 116.083 58.7125 120.325 58.7125V54.1667C114.717 54.1667 107.379 58.1625 99.9583 65.0917C92.5417 58.2083 85.2 54.25 79.5958 54.25V58.7917C83.8167 58.7917 90.075 62.1583 96.7208 68.2917C93.8667 71.2917 91.0125 74.6917 88.3 78.4625C83.9326 78.9099 79.6015 79.6589 75.3375 80.7042C74.8667 78.6667 74.5208 76.6917 74.275 74.7958C73.3167 67.0042 74.5 60.9542 77.2542 59.3458C77.8625 58.9792 78.6583 58.8125 79.5958 58.8125V54.2708C77.8875 54.2708 76.3333 54.6375 74.9917 55.4083C69.2625 58.7125 67.9792 69.0042 70.9333 81.9292C58.2542 85.8458 50 92.1 50 98.7042C50 105.329 58.2958 111.608 71.0167 115.496C68.0792 128.463 69.3833 138.779 75.1333 142.079C76.4583 142.854 78.0083 143.221 79.7167 143.221C85.325 143.221 92.6625 139.225 100.083 132.296C107.5 139.183 114.837 143.138 120.446 143.138C122.055 143.171 123.643 142.777 125.05 141.996C130.779 138.696 132.062 128.404 129.108 115.479C141.746 111.588 150 105.308 150 98.7042ZM123.458 85.1083C122.667 87.8327 121.749 90.519 120.708 93.1583C119.005 89.8448 117.134 86.6199 115.104 83.4958C118 83.925 120.792 84.4542 123.463 85.1083H123.458ZM114.125 106.817C112.537 109.567 110.904 112.179 109.212 114.604C103.097 115.143 96.946 115.15 90.8292 114.625C87.3206 109.613 84.2522 104.307 81.6583 98.7667C84.2483 93.2129 87.3036 87.8884 90.7917 82.85C96.9058 82.3099 103.055 82.3015 109.171 82.825C110.862 85.25 112.517 87.8417 114.104 90.575C115.654 93.2417 117.062 95.95 118.346 98.6833C117.048 101.45 115.64 104.163 114.125 106.817ZM120.708 104.167C121.808 106.896 122.75 109.629 123.521 112.279C120.854 112.933 118.037 113.483 115.125 113.908C117.147 110.756 119.01 107.505 120.708 104.167ZM100.042 125.917C98.1458 123.958 96.25 121.779 94.375 119.392C96.2083 119.475 98.0833 119.538 99.9792 119.538C101.896 119.538 103.792 119.496 105.646 119.392C103.812 121.779 101.917 123.958 100.042 125.917ZM84.875 113.908C82.0656 113.501 79.2765 112.965 76.5167 112.3C77.2708 109.671 78.2083 106.958 79.2667 104.25C80.1042 105.875 80.9833 107.508 81.9417 109.142C82.9 110.771 83.875 112.363 84.875 113.908ZM99.9375 71.4917C101.833 73.45 103.729 75.6292 105.604 78.0167C103.771 77.9333 101.896 77.8708 100 77.8708C98.0833 77.8708 96.1875 77.9125 94.3333 78.0167C96.1667 75.6292 98.0625 73.45 99.9375 71.4917ZM84.8542 83.5C82.8328 86.6456 80.9694 89.8899 79.2708 93.2208C78.2009 90.5644 77.2623 87.857 76.4583 85.1083C79.125 84.475 81.9417 83.925 84.8542 83.5ZM66.4083 109.017C59.1917 105.942 54.525 101.904 54.525 98.7042C54.525 95.5042 59.1917 91.4458 66.4083 88.3917C68.1583 87.6375 70.075 86.9625 72.0542 86.3333C73.2167 90.325 74.7458 94.4833 76.6375 98.7458C74.8515 102.755 73.3411 106.881 72.1167 111.096C70.181 110.497 68.276 109.803 66.4083 109.017ZM77.375 138.142C74.6042 136.558 73.4 130.5 74.3375 122.717C74.5625 120.8 74.9292 118.779 75.3792 116.721C79.3708 117.7 83.7333 118.454 88.3208 118.946C90.9174 122.528 93.7501 125.933 96.8 129.138C90.1542 135.313 83.9167 138.696 79.675 138.696C78.8748 138.705 78.0847 138.516 77.375 138.146V138.142ZM125.725 122.613C126.683 130.4 125.5 136.454 122.746 138.063C122.137 138.429 121.342 138.592 120.404 138.592C116.183 138.592 109.925 135.229 103.279 129.092C106.133 126.1 108.987 122.696 111.7 118.925C116.067 118.478 120.399 117.729 124.662 116.683C125.133 118.742 125.496 120.717 125.725 122.613ZM133.571 109.017C131.821 109.771 129.904 110.446 127.925 111.075C126.679 106.839 125.148 102.692 123.342 98.6625C125.217 94.425 126.721 90.2875 127.862 86.3125C129.883 86.9417 131.796 87.6375 133.592 88.3917C140.808 91.4667 145.475 95.5042 145.475 98.7042C145.454 101.904 140.787 105.963 133.571 109.017Z" fill="#61DAFB"/>
<path d="M99.9791 108.021C102.45 108.021 104.82 107.039 106.567 105.292C108.314 103.545 109.296 101.175 109.296 98.7042C109.296 96.2332 108.314 93.8635 106.567 92.1163C104.82 90.3691 102.45 89.3875 99.9791 89.3875C97.5082 89.3875 95.1385 90.3691 93.3913 92.1163C91.644 93.8635 90.6625 96.2332 90.6625 98.7042C90.6625 101.175 91.644 103.545 93.3913 105.292C95.1385 107.039 97.5082 108.021 99.9791 108.021Z" fill="#61DAFB"/>
<path d="M180.495 130.181L179.054 129.687C178.112 129.364 177.3 128.948 176.62 128.44C175.943 127.939 175.412 127.365 175.025 126.716C174.637 126.074 174.406 125.382 174.333 124.641C174.259 123.9 174.357 123.129 174.627 122.327C174.891 121.543 175.276 120.877 175.784 120.328C176.289 119.786 176.89 119.376 177.588 119.099C178.286 118.822 179.056 118.687 179.898 118.693C180.747 118.702 181.643 118.868 182.585 119.191L184.026 119.685C184.968 120.008 185.777 120.423 186.451 120.929C187.13 121.444 187.662 122.026 188.048 122.674C188.435 123.323 188.665 124.018 188.738 124.759C188.812 125.5 188.717 126.262 188.453 127.046C188.183 127.848 187.796 128.52 187.29 129.063C186.785 129.605 186.183 130.015 185.486 130.292C184.788 130.569 184.016 130.7 183.169 130.685C182.329 130.672 181.437 130.504 180.495 130.181ZM179.434 128.558L180.893 129.058C181.688 129.331 182.433 129.483 183.13 129.515C183.825 129.554 184.457 129.471 185.027 129.267C185.595 129.07 186.085 128.756 186.497 128.326C186.91 127.896 187.226 127.355 187.446 126.7C187.66 126.065 187.732 125.453 187.662 124.865C187.592 124.276 187.392 123.726 187.063 123.214C186.732 122.708 186.281 122.251 185.711 121.842C185.139 121.44 184.456 121.102 183.662 120.83L182.202 120.329C181.401 120.055 180.65 119.901 179.947 119.866C179.248 119.84 178.611 119.928 178.035 120.129C177.465 120.333 176.975 120.647 176.564 121.07C176.152 121.5 175.838 122.033 175.625 122.669C175.403 123.329 175.326 123.953 175.396 124.541C175.466 125.13 175.667 125.677 175.998 126.183C176.336 126.691 176.791 127.143 177.366 127.539C177.944 127.944 178.633 128.283 179.434 128.558Z" fill="white"/>
<path d="M171.361 143.245L173.536 139.825L174.396 140.383L172.221 143.803C171.767 144.517 171.513 145.171 171.46 145.764C171.408 146.367 171.517 146.899 171.786 147.361C172.053 147.828 172.434 148.223 172.931 148.545C173.418 148.86 173.932 149.046 174.474 149.103C175.013 149.166 175.549 149.051 176.081 148.76C176.616 148.478 177.11 147.98 177.564 147.266L179.514 144.201L168.451 137.03L169.096 136.016L181.027 143.75L178.433 147.829C177.874 148.708 177.254 149.349 176.572 149.753C175.888 150.163 175.18 150.348 174.449 150.308C173.717 150.269 173.002 150.023 172.303 149.569C171.571 149.095 171.038 148.532 170.704 147.881C170.375 147.233 170.261 146.52 170.364 145.741C170.466 144.961 170.798 144.129 171.361 143.245Z" fill="white"/>
<path d="M152.629 158.123L151.919 157.384L157.636 151.791L158.346 152.53L152.629 158.123ZM167.225 162.3L157.378 152.043L158.236 151.203L168.084 161.46L167.225 162.3ZM158.062 162.344L157.352 161.604L162.357 156.708L163.067 157.447L158.062 162.344ZM161.801 167.606L161.084 166.86L166.766 161.301L167.483 162.047L161.801 167.606Z" fill="white"/>
<path d="M143.056 180.59L135.964 168.266L137.008 167.654L150.119 174.048L144.059 163.519L145.095 162.911L152.188 175.234L151.152 175.842L138.024 169.458L144.084 179.987L143.056 180.59Z" fill="white"/>
<path d="M114.146 189.921L112.022 175.861L113.199 175.68L115.323 189.739L114.146 189.921ZM109.329 190.662L109.175 189.638L119.975 187.976L120.13 189L109.329 190.662Z" fill="white"/>
<path d="M88.1606 183.846L88.2895 182.328C88.3738 181.336 88.5798 180.449 88.9076 179.667C89.2283 178.891 89.6562 178.238 90.1911 177.71C90.7196 177.18 91.334 176.792 92.0345 176.546C92.7349 176.299 93.5068 176.213 94.35 176.286C95.1737 176.357 95.9132 176.574 96.5683 176.938C97.217 177.302 97.7603 177.79 98.1983 178.403C98.6363 179.016 98.9543 179.733 99.1525 180.553C99.3501 181.381 99.4068 182.291 99.3225 183.283L99.1936 184.801C99.1093 185.794 98.9035 186.678 98.5763 187.453C98.242 188.235 97.8074 188.89 97.2725 189.419C96.7375 189.947 96.1198 190.335 95.4194 190.581C94.7189 190.828 93.9568 190.916 93.1331 190.844C92.2899 190.771 91.5439 190.553 90.8953 190.19C90.2466 189.827 89.7033 189.338 89.2653 188.726C88.8273 188.113 88.5128 187.393 88.3216 186.566C88.13 185.745 88.0763 184.839 88.1606 183.846ZM89.4765 182.431L89.3459 183.969C89.2748 184.805 89.3082 185.566 89.446 186.251C89.5774 186.936 89.8111 187.531 90.147 188.037C90.4765 188.543 90.8997 188.945 91.4166 189.245C91.9334 189.545 92.5356 189.724 93.2232 189.784C93.8912 189.841 94.502 189.767 95.0553 189.56C95.6087 189.353 96.0935 189.029 96.51 188.588C96.9199 188.146 97.2538 187.6 97.5116 186.949C97.7629 186.298 97.9241 185.554 97.9952 184.717L98.1258 183.18C98.1974 182.336 98.1646 181.569 98.0273 180.878C97.883 180.192 97.6431 179.593 97.3077 179.08C96.9717 178.574 96.5485 178.172 96.0381 177.873C95.5213 177.573 94.9288 177.394 94.2607 177.336C93.5667 177.276 92.943 177.35 92.3897 177.557C91.8363 177.764 91.3547 178.088 90.9447 178.53C90.5342 178.978 90.2066 179.528 89.9617 180.18C89.7099 180.837 89.5481 181.588 89.4765 182.431Z" fill="white"/>
<path d="M65.1266 172.482L57.4968 180.24L56.6471 179.779L58.7939 177.411L66.9115 169.173L67.7269 169.615L65.1266 172.482ZM63.3586 183.422L65.9475 173.038L67.0746 169.261L67.9243 169.722L64.44 184.009L63.3586 183.422ZM57.8628 168.649L50.7424 176.573L49.661 175.986L59.5392 165.17L60.3888 165.632L57.8628 168.649ZM56.5527 179.727L58.7927 169.043L59.7366 165.277L60.5519 165.72L58.1588 177.066L57.3938 180.184L56.5527 179.727Z" fill="white"/>
<path d="M36.9741 156.559L38.0291 155.46C38.719 154.741 39.4365 154.182 40.1818 153.782C40.9179 153.381 41.6588 153.146 42.4046 153.074C43.1458 152.997 43.8643 153.086 44.5602 153.338C45.2561 153.591 45.9066 154.013 46.5115 154.605C47.1026 155.183 47.5364 155.822 47.8132 156.521C48.0852 157.215 48.1974 157.939 48.1496 158.694C48.1019 159.449 47.8961 160.208 47.5323 160.973C47.164 161.742 46.635 162.486 45.9451 163.204L44.89 164.303C44.2002 165.022 43.4849 165.579 42.7441 165.974C41.9942 166.37 41.2464 166.604 40.5006 166.675C39.7548 166.747 39.0339 166.657 38.338 166.404C37.6421 166.151 36.9986 165.736 36.4076 165.158C35.8026 164.566 35.3641 163.923 35.092 163.228C34.82 162.534 34.7078 161.81 34.7556 161.055C34.8033 160.3 35.0137 159.541 35.3866 158.776C35.7551 158.016 36.2842 157.277 36.9741 156.559ZM38.8808 156.293L37.8122 157.406C37.2305 158.012 36.7773 158.625 36.4525 159.245C36.123 159.861 35.9287 160.472 35.8695 161.079C35.8056 161.681 35.8788 162.263 36.0893 162.824C36.2997 163.385 36.6515 163.907 37.1448 164.39C37.6242 164.859 38.1425 165.188 38.7 165.378C39.2574 165.569 39.8357 165.624 40.4348 165.545C41.0292 165.462 41.6307 165.249 42.2394 164.907C42.8434 164.559 43.4362 164.083 44.0179 163.477L45.0865 162.364C45.6726 161.754 46.1304 161.136 46.4597 160.511C46.7798 159.886 46.9718 159.268 47.0355 158.656C47.0947 158.049 47.0215 157.468 46.8157 156.911C46.6053 156.35 46.2604 155.835 45.7811 155.366C45.2832 154.879 44.7555 154.54 44.198 154.35C43.6406 154.16 43.0646 154.106 42.4702 154.19C41.8713 154.278 41.2722 154.498 40.6728 154.849C40.0643 155.201 39.4669 155.682 38.8808 156.293Z" fill="white"/>
<path d="M24.6756 151.265L22.2478 147.336C21.7311 146.499 21.4178 145.689 21.3079 144.904C21.1981 144.119 21.3049 143.394 21.6285 142.729C21.9432 142.062 22.4834 141.487 23.2493 141.005C23.8167 140.648 24.4072 140.445 25.0205 140.397C25.6305 140.344 26.2225 140.429 26.7966 140.652C27.3652 140.879 27.8784 141.233 28.3363 141.714L28.6892 141.988L31.2813 146.184L30.4238 146.746L28.2526 143.232C27.8626 142.601 27.4163 142.151 26.9138 141.883C26.4113 141.614 25.8967 141.5 25.37 141.539C24.8343 141.576 24.3379 141.739 23.8806 142.027C23.3352 142.37 22.9377 142.786 22.6881 143.274C22.4296 143.759 22.335 144.3 22.4041 144.895C22.4733 145.49 22.7132 146.12 23.1238 146.784L24.9203 149.692L36.077 142.668L36.7083 143.69L24.6756 151.265ZM32.0939 136.221L28.649 142.74L27.9632 141.649L31.3141 135.2L31.4215 135.133L32.0939 136.221Z" fill="white"/>
<path d="M13.9291 130.64L27.4097 126.118L27.7853 127.259L14.3046 131.781L13.9291 130.64ZM11.1811 122.291L19.2741 126.045L23.1184 128.011L21.8866 128.547L18.6668 127.011L11.6513 123.72L11.1811 122.291ZM24.9732 118.716L19.9194 126.725L18.7768 126.346L24.5183 117.334L24.9732 118.716Z" fill="white"/>
<path d="M20.5049 68.8188L21.946 69.3128C22.8883 69.6359 23.6998 70.0517 24.3804 70.5603C25.0569 71.0606 25.5883 71.6351 25.9746 72.2837C26.363 72.9261 26.5939 73.6178 26.6675 74.3587C26.741 75.0997 26.6429 75.8713 26.373 76.6734C26.1094 77.4571 25.7239 78.1233 25.2164 78.672C24.7111 79.2145 24.1096 79.6242 23.412 79.9013C22.7143 80.1783 21.9442 80.3134 21.1016 80.3067C20.2528 80.2979 19.3573 80.132 18.415 79.809L16.9739 79.315C16.0316 78.992 15.2233 78.5772 14.5488 78.0707C13.8702 77.5559 13.3378 76.9743 12.9515 76.3257C12.5653 75.6771 12.3354 74.9823 12.2618 74.2414C12.1882 73.5004 12.2833 72.7381 12.5469 71.9544C12.8168 71.1522 13.2044 70.4799 13.7097 69.9374C14.2151 69.3948 14.8166 68.9851 15.5142 68.7081C16.2119 68.4311 16.984 68.3 17.8307 68.315C18.6713 68.3279 19.5627 68.4958 20.5049 68.8188ZM21.5662 70.4421L20.1066 69.9417C19.3121 69.6694 18.5666 69.517 17.87 69.4847C17.1754 69.4462 16.5432 69.5288 15.9732 69.7326C15.4053 69.9302 14.9151 70.2439 14.5026 70.6737C14.0901 71.1035 13.7739 71.6455 13.5538 72.2996C13.34 72.9352 13.2681 73.5471 13.3381 74.1354C13.408 74.7238 13.6076 75.2739 13.9368 75.7859C14.268 76.2918 14.7186 76.7491 15.2886 77.1578C15.8607 77.5604 16.5439 77.8978 17.3384 78.1702L18.798 78.6706C19.5986 78.945 20.3503 79.0995 21.0531 79.1339C21.7518 79.1601 22.3892 79.0723 22.9653 78.8707C23.5353 78.6669 24.0255 78.3532 24.4359 77.9295C24.8484 77.4997 25.1615 76.967 25.3753 76.3314C25.5975 75.6712 25.6735 75.0469 25.6036 74.4586C25.5336 73.8702 25.333 73.3231 25.0017 72.8173C24.6643 72.3093 24.2086 71.8572 23.6344 71.4608C23.0562 71.0561 22.3668 70.7165 21.5662 70.4421Z" fill="white"/>
<path d="M29.6391 55.7551L27.464 59.1747L26.6036 58.6169L28.7787 55.1974C29.2329 54.4832 29.4868 53.8293 29.5404 53.2357C29.592 52.6329 29.483 52.1007 29.2135 51.639C28.9475 51.1717 28.5659 50.777 28.0687 50.4547C27.5825 50.1396 27.0681 49.9536 26.5256 49.8968C25.9866 49.8344 25.4509 49.9488 24.9185 50.2399C24.3842 50.522 23.8899 51.0201 23.4357 51.7342L21.4859 54.7995L32.5489 61.9701L31.9042 62.9836L19.9726 55.25L22.567 51.1712C23.1261 50.2923 23.7463 49.6508 24.4276 49.2468C25.1125 48.8373 25.8204 48.6522 26.5515 48.6916C27.2825 48.731 27.9977 48.9773 28.697 49.4306C29.4291 49.9051 29.9622 50.4679 30.2965 51.119C30.6253 51.7666 30.7386 52.48 30.6363 53.2594C30.5341 54.0388 30.2017 54.8707 29.6391 55.7551Z" fill="white"/>
<path d="M48.3709 40.8766L49.0811 41.6163L43.364 47.2094L42.6538 46.4698L48.3709 40.8766ZM33.7749 36.6999L43.6223 46.9568L42.7637 47.7968L32.9163 37.5399L33.7749 36.6999ZM42.9381 36.6561L43.6483 37.3958L38.6432 42.2924L37.9331 41.5527L42.9381 36.6561ZM39.1988 31.3936L39.9157 32.1403L34.2336 37.6993L33.5166 36.9526L39.1988 31.3936Z" fill="white"/>
<path d="M57.9436 18.4102L65.0362 30.7337L63.9917 31.3463L50.8811 24.9522L56.941 35.4813L55.9048 36.089L48.8122 23.7655L49.8484 23.1579L62.9758 29.542L56.9159 19.0129L57.9436 18.4102Z" fill="white"/>
<path d="M86.8545 9.07935L88.9782 23.1386L87.8006 23.3199L85.6769 9.2606L86.8545 9.07935ZM91.6708 8.338L91.8254 9.36155L81.0249 11.024L80.8703 10.0005L91.6708 8.338Z" fill="white"/>
<path d="M112.839 15.1535L112.71 16.6715C112.626 17.664 112.42 18.5513 112.092 19.3332C111.772 20.1092 111.344 20.7616 110.809 21.2904C110.28 21.8197 109.666 22.2076 108.966 22.4541C108.265 22.7006 107.493 22.7874 106.65 22.7144C105.826 22.6431 105.087 22.4256 104.432 22.0617C103.783 21.6984 103.24 21.2103 102.802 20.5974C102.364 19.9844 102.046 19.2675 101.847 18.4465C101.65 17.6191 101.593 16.7092 101.678 15.7166L101.806 14.1987C101.891 13.2061 102.096 12.3222 102.424 11.5467C102.758 10.7653 103.193 10.1103 103.728 9.58149C104.262 9.05273 104.88 8.6651 105.581 8.41859C106.281 8.17208 107.043 8.08447 107.867 8.15576C108.71 8.22874 109.456 8.44686 110.105 8.81013C110.753 9.17341 111.297 9.66152 111.735 10.2745C112.173 10.8875 112.487 11.6074 112.678 12.4342C112.87 13.2546 112.924 14.161 112.839 15.1535ZM111.524 16.5688L111.654 15.0313C111.725 14.1945 111.692 13.4336 111.554 12.7486C111.423 12.0641 111.189 11.4689 110.853 10.9627C110.523 10.4572 110.1 10.0546 109.583 9.75503C109.067 9.45544 108.464 9.2759 107.777 9.21639C107.109 9.15858 106.498 9.23315 105.945 9.44011C105.391 9.64708 104.906 9.97106 104.49 10.4121C104.08 10.8536 103.746 11.3998 103.488 12.0505C103.237 12.7019 103.076 13.4459 103.005 14.2828L102.874 15.8202C102.803 16.6635 102.835 17.4309 102.973 18.1224C103.117 18.808 103.357 19.4071 103.692 19.9197C104.028 20.4258 104.451 20.8284 104.962 21.1274C105.479 21.427 106.071 21.6057 106.739 21.6635C107.433 21.7236 108.057 21.6501 108.61 21.4432C109.164 21.2362 109.645 20.9119 110.055 20.4704C110.466 20.0223 110.793 19.4724 111.038 18.8205C111.29 18.1627 111.452 17.4121 111.524 16.5688Z" fill="white"/>
<path d="M135.873 26.5185L143.503 18.7601L144.353 19.2213L142.206 21.5894L134.088 29.8274L133.273 29.3848L135.873 26.5185ZM137.641 15.5778L135.053 25.9617L133.925 29.7389L133.076 29.2776L136.56 14.9907L137.641 15.5778ZM143.137 30.3507L150.258 22.4269L151.339 23.0139L141.461 33.8297L140.611 33.3684L143.137 30.3507ZM144.447 19.2726L142.207 29.957L141.263 33.7225L140.448 33.2799L142.841 21.9342L143.606 18.816L144.447 19.2726Z" fill="white"/>
<path d="M164.026 42.4413L162.971 43.5403C162.281 44.2588 161.563 44.8182 160.818 45.2185C160.082 45.6185 159.341 45.8545 158.595 45.9263C157.854 46.0027 157.136 45.9145 156.44 45.6617C155.744 45.4089 155.093 44.9866 154.488 44.3948C153.897 43.8165 153.464 43.1781 153.187 42.4793C152.915 41.785 152.803 41.0606 152.85 40.3058C152.898 39.5511 153.104 38.7915 153.468 38.0272C153.836 37.2582 154.365 36.5144 155.055 35.7959L156.11 34.697C156.8 33.9784 157.515 33.4214 158.256 33.0258C159.006 32.6302 159.754 32.3964 160.499 32.3246C161.245 32.2528 161.966 32.3432 162.662 32.596C163.358 32.8488 164.001 33.2643 164.592 33.8425C165.197 34.4344 165.636 35.0774 165.908 35.7716C166.18 36.4659 166.292 37.1903 166.244 37.9451C166.197 38.6998 165.986 39.4594 165.613 40.2239C165.245 40.9837 164.716 41.7228 164.026 42.4413ZM162.119 42.7071L163.188 41.5941C163.769 40.9883 164.223 40.3752 164.548 39.7549C164.877 39.1391 165.071 38.5278 165.131 37.9209C165.194 37.3185 165.121 36.7369 164.911 36.1758C164.7 35.6148 164.348 35.0929 163.855 34.6103C163.376 34.1414 162.857 33.8118 162.3 33.6217C161.743 33.4315 161.164 33.3758 160.565 33.4545C159.971 33.5379 159.369 33.7508 158.761 34.0934C158.157 34.4405 157.564 34.917 156.982 35.5229L155.914 36.6359C155.327 37.2464 154.87 37.8642 154.54 38.4892C154.22 39.1141 154.028 39.7323 153.964 40.3439C153.905 40.9508 153.979 41.5325 154.184 42.089C154.395 42.65 154.74 43.165 155.219 43.6339C155.717 44.1211 156.245 44.4598 156.802 44.6499C157.359 44.8401 157.935 44.8935 158.53 44.8102C159.129 44.7222 159.728 44.5024 160.327 44.1507C160.936 43.7988 161.533 43.3176 162.119 42.7071Z" fill="white"/>
<path d="M176.324 47.7346L178.752 51.6643C179.269 52.5006 179.582 53.3111 179.692 54.0959C179.802 54.8806 179.695 55.6056 179.371 56.2709C179.057 56.9383 178.517 57.5131 177.751 57.9952C177.183 58.3525 176.593 58.5549 175.979 58.6026C175.37 58.6558 174.778 58.5708 174.203 58.3475C173.635 58.1208 173.122 57.767 172.664 57.286L172.311 57.012L169.719 52.8165L170.576 52.2536L172.747 55.7678C173.137 56.3992 173.584 56.8491 174.086 57.1174C174.589 57.3857 175.103 57.5002 175.63 57.461C176.166 57.4238 176.662 57.2612 177.119 56.9733C177.665 56.6299 178.062 56.2143 178.312 55.7264C178.57 55.2406 178.665 54.7002 178.596 54.1052C178.527 53.5102 178.287 52.8804 177.876 52.2158L176.08 49.308L164.923 56.3318L164.292 55.31L176.324 47.7346ZM168.906 62.7788L172.351 56.2596L173.037 57.3511L169.686 63.7995L169.578 63.8671L168.906 62.7788Z" fill="white"/>
<path d="M187.071 68.3604L173.59 72.882L173.215 71.7411L186.695 67.2194L187.071 68.3604ZM189.819 76.7088L181.726 72.9548L177.882 70.9894L179.113 70.4527L182.333 71.9889L189.349 75.2803L189.819 76.7088ZM176.027 80.2843L181.081 72.2751L182.223 72.6541L176.482 81.6664L176.027 80.2843Z" fill="white"/>
<path d="M181.75 99.5L185.5 95.75L189.25 99.5L185.5 103.25L181.75 99.5Z" fill="white"/>
<path d="M185.5 106.062C185.372 106.063 185.245 106.038 185.126 105.988C185.008 105.939 184.9 105.867 184.81 105.777L179.223 100.191C179.04 100.008 178.938 99.7593 178.938 99.5005C178.938 99.2416 179.04 98.9933 179.223 98.81L184.81 93.223C184.993 93.0402 185.241 92.9375 185.5 92.9375C185.759 92.9375 186.007 93.0402 186.19 93.223L191.777 98.8095C191.96 98.9928 192.062 99.2411 192.062 99.5C192.062 99.7589 191.96 100.007 191.777 100.19L186.19 105.777C186.1 105.868 185.992 105.94 185.874 105.989C185.755 106.038 185.628 106.063 185.5 106.062V106.062ZM185.5 93.875C185.495 93.8749 185.49 93.8759 185.485 93.8778C185.48 93.8797 185.476 93.8826 185.472 93.8862L179.887 99.4719C179.879 99.4792 179.875 99.4892 179.875 99.4995C179.875 99.5099 179.879 99.5198 179.887 99.5272L185.472 105.114C185.479 105.121 185.489 105.125 185.5 105.125C185.51 105.125 185.52 105.121 185.527 105.114L191.114 99.5281C191.121 99.5208 191.125 99.5108 191.125 99.5005C191.125 99.4901 191.121 99.4802 191.114 99.4728L185.528 93.8862C185.524 93.8825 185.52 93.8796 185.515 93.8776C185.51 93.8755 185.505 93.8745 185.5 93.8745V93.875Z" fill="white"/>
<path d="M9.75 99.5L13.5 95.75L17.25 99.5L13.5 103.25L9.75 99.5Z" fill="white"/>
<path d="M13.5 106.062C13.3717 106.063 13.2447 106.038 13.1262 105.988C13.0077 105.939 12.9001 105.867 12.8095 105.777L7.22295 100.191C7.04015 100.008 6.9375 99.7593 6.9375 99.5005C6.9375 99.2416 7.04015 98.9933 7.22295 98.81L12.8095 93.223C12.9928 93.0402 13.2411 92.9375 13.5 92.9375C13.7588 92.9375 14.0071 93.0402 14.1904 93.223L19.777 98.8095C19.9598 98.9928 20.0625 99.2411 20.0625 99.5C20.0625 99.7589 19.9598 100.007 19.777 100.19L14.1904 105.777C14.0998 105.868 13.9922 105.94 13.8737 105.989C13.7552 106.038 13.6282 106.063 13.5 106.062V106.062ZM13.5 93.875C13.4948 93.8749 13.4896 93.8759 13.4848 93.8778C13.48 93.8797 13.4756 93.8826 13.4719 93.8862L7.8867 99.4719C7.87943 99.4792 7.87535 99.4892 7.87535 99.4995C7.87535 99.5099 7.87943 99.5198 7.8867 99.5272L13.4719 105.114C13.4792 105.121 13.4892 105.125 13.4995 105.125C13.5099 105.125 13.5198 105.121 13.5272 105.114L19.1137 99.5281C19.121 99.5208 19.1251 99.5108 19.1251 99.5005C19.1251 99.4901 19.121 99.4802 19.1137 99.4728L13.5281 93.8862C13.5244 93.8825 13.52 93.8796 13.5152 93.8776C13.5104 93.8755 13.5052 93.8745 13.5 93.8745V93.875Z" fill="white"/>
</svg>
